<?xml version="1.0" encoding="UTF-8" standalone="no"?>
<!-- Created with Inkscape (http://www.inkscape.org/) -->

<svg
   xmlns:dc="http://purl.org/dc/elements/1.1/"
   xmlns:cc="http://creativecommons.org/ns#"
   xmlns:rdf="http://www.w3.org/1999/02/22-rdf-syntax-ns#"
   xmlns:svg="http://www.w3.org/2000/svg"
   xmlns="http://www.w3.org/2000/svg"
   xmlns:sodipodi="http://sodipodi.sourceforge.net/DTD/sodipodi-0.dtd"
   xmlns:inkscape="http://www.inkscape.org/namespaces/inkscape"
   version="1.1"
   id="svg4485"
   width="150"
   height="150"
   viewBox="0 0 150 150"
   sodipodi:docname="down-arrow.svg"
   inkscape:version="0.92.1 r15371">
  <metadata
     id="metadata4491">
    <rdf:RDF>
      <cc:Work
         rdf:about="">
        <dc:format>image/svg+xml</dc:format>
        <dc:type
           rdf:resource="http://purl.org/dc/dcmitype/StillImage" />
        <dc:title></dc:title>
      </cc:Work>
    </rdf:RDF>
  </metadata>
  <defs
     id="defs4489" />
  <sodipodi:namedview
     pagecolor="#d2d2d2"
     bordercolor="#666666"
     borderopacity="1"
     objecttolerance="10"
     gridtolerance="10"
     guidetolerance="10"
     inkscape:pageopacity="0"
     inkscape:pageshadow="2"
     inkscape:window-width="3200"
     inkscape:window-height="1644"
     id="namedview4487"
     showgrid="false"
     showguides="true"
     inkscape:guide-bbox="true"
     inkscape:zoom="3.6377329"
     inkscape:cx="-166.86007"
     inkscape:cy="131.84648"
     inkscape:window-x="-16"
     inkscape:window-y="-16"
     inkscape:window-maximized="1"
     inkscape:current-layer="svg4485">
    <sodipodi:guide
       position="637.75985,410.14556"
       orientation="1,0"
       id="guide4550"
       inkscape:locked="false" />
  </sodipodi:namedview>
  <path
     style="opacity:1;fill:#37af1b;fill-opacity:1;fill-rule:evenodd;stroke:none;stroke-width:5.99810982;stroke-linecap:round;stroke-linejoin:bevel;stroke-miterlimit:4;stroke-dasharray:none;stroke-dashoffset:0;stroke-opacity:1"
     d="M 74.99995,5e-5 C 33.57865,7e-5 6.05e-5,33.57864 4.9999977e-7,74.99994 -9.5000002e-6,116.42128 33.57861,149.99993 74.99995,149.99995 116.42133,149.99998 150.00001,116.42132 150,74.99994 149.99994,33.57861 116.42129,2e-5 74.99995,5e-5 Z"
     id="path4490"
     inkscape:connector-curvature="0"
     sodipodi:nodetypes="scscs" />
  <path
     style="opacity:1;fill:#ffffff;fill-opacity:1;fill-rule:evenodd;stroke:none;stroke-width:5.99810982;stroke-linecap:round;stroke-linejoin:bevel;stroke-miterlimit:4;stroke-dasharray:none;stroke-dashoffset:0;stroke-opacity:1"
     d="m 98.220415,50.180165 13.093355,0.0014 c 14.45448,0.0029 13.9424,-0.02551 15.71669,0.867479 1.27808,0.643601 2.23309,1.434254 3.0229,2.502143 2.17811,2.944739 2.22204,7.069561 0.10768,9.998402 -0.44208,0.612089 -0.91052,1.091213 -16.21318,16.589278 -28.38184,28.744363 -33.661354,34.035343 -34.425085,34.499273 -2.549644,1.5488 -5.539663,1.66294 -8.304964,0.31711 -1.359694,-0.66166 -0.235207,0.43781 -20.384085,-19.939501 C 43.703687,87.804644 34.900247,78.908779 31.270338,75.247169 20.599936,64.4829 19.856899,63.699192 19.291252,62.611549 18.457524,61.00817 18.106695,59.016748 18.367121,57.362925 c 0.514922,-3.267744 2.733563,-5.79732 6.085187,-6.937701 0.38484,-0.130924 3.599307,-0.187885 13.681964,-0.242296 l 13.178945,-0.07113 z"
     id="path4490-9"
     inkscape:connector-curvature="0"
     sodipodi:nodetypes="ccccccsccccccscc" />
</svg>
