<?xml version="1.0" encoding="UTF-8" standalone="no"?>
<!-- Created with Inkscape (http://www.inkscape.org/) -->

<svg
   xmlns:dc="http://purl.org/dc/elements/1.1/"
   xmlns:cc="http://creativecommons.org/ns#"
   xmlns:rdf="http://www.w3.org/1999/02/22-rdf-syntax-ns#"
   xmlns:svg="http://www.w3.org/2000/svg"
   xmlns="http://www.w3.org/2000/svg"
   xmlns:sodipodi="http://sodipodi.sourceforge.net/DTD/sodipodi-0.dtd"
   xmlns:inkscape="http://www.inkscape.org/namespaces/inkscape"
   version="1.1"
   id="svg4485"
   width="150"
   height="150"
   viewBox="0 0 150 150"
   sodipodi:docname="up-arrow.svg"
   inkscape:version="0.92.3 (2405546, 2018-03-11)">
  <metadata
     id="metadata4491">
    <rdf:RDF>
      <cc:Work
         rdf:about="">
        <dc:format>image/svg+xml</dc:format>
        <dc:type
           rdf:resource="http://purl.org/dc/dcmitype/StillImage" />
        <dc:title />
      </cc:Work>
    </rdf:RDF>
  </metadata>
  <defs
     id="defs4489" />
  <sodipodi:namedview
     pagecolor="#d2d2d2"
     bordercolor="#666666"
     borderopacity="1"
     objecttolerance="10"
     gridtolerance="10"
     guidetolerance="10"
     inkscape:pageopacity="0"
     inkscape:pageshadow="2"
     inkscape:window-width="3840"
     inkscape:window-height="1973"
     id="namedview4487"
     showgrid="false"
     showguides="true"
     inkscape:guide-bbox="true"
     inkscape:zoom="5.7336923"
     inkscape:cx="168.0685"
     inkscape:cy="51.233597"
     inkscape:window-x="-18"
     inkscape:window-y="-18"
     inkscape:window-maximized="1"
     inkscape:current-layer="svg4485">
    <sodipodi:guide
       position="637.75985,410.14556"
       orientation="1,0"
       id="guide4550"
       inkscape:locked="false" />
  </sodipodi:namedview>
  <path
     style="opacity:1;fill:#ffffff;fill-opacity:1;fill-rule:evenodd;stroke:none;stroke-width:5.99810982;stroke-linecap:round;stroke-linejoin:bevel;stroke-miterlimit:4;stroke-dasharray:none;stroke-dashoffset:0;stroke-opacity:1"
     d="m 98.220415,93.250324 13.093355,-0.0014 c 14.45448,-0.0029 13.9424,0.02551 15.71669,-0.867479 1.27808,-0.643601 2.23309,-1.434254 3.0229,-2.502143 2.17811,-2.944739 2.22204,-7.069561 0.10768,-9.998402 -0.44208,-0.612089 -0.91052,-1.091213 -16.21318,-16.589278 C 85.56602,34.54726 80.286506,29.25628 79.522775,28.79235 76.973131,27.24355 73.983112,27.12941 71.217811,28.47524 69.858117,29.1369 70.982604,28.03743 50.833726,48.41474 43.703687,55.625845 34.900247,64.52171 31.270338,68.18332 20.599936,78.947589 19.856899,79.731297 19.291252,80.81894 c -0.833728,1.603379 -1.184557,3.594801 -0.924131,5.248624 0.514922,3.267744 2.733563,5.79732 6.085187,6.937701 0.38484,0.130924 3.599307,0.187885 13.681964,0.242296 l 13.178945,0.07113 z"
     id="path4490-9"
     inkscape:connector-curvature="0"
     sodipodi:nodetypes="ccccccsccccccscc" />
</svg>
